<?xml version="1.0" encoding="UTF-8" standalone="no"?>
<!DOCTYPE svg PUBLIC "-//W3C//DTD SVG 1.1//EN" "http://www.w3.org/Graphics/SVG/1.1/DTD/svg11.dtd">
<svg width="100%" height="100%" viewBox="0 0 450 124" version="1.1" xmlns="http://www.w3.org/2000/svg" xmlns:xlink="http://www.w3.org/1999/xlink" xml:space="preserve" xmlns:serif="http://www.serif.com/" style="fill-rule:evenodd;clip-rule:evenodd;stroke-linejoin:round;stroke-miterlimit:2;">
    <g transform="matrix(0.20962,0,0,0.20962,56.2533,-38.4703)">
        <g transform="matrix(310.329,0,0,310.329,355.954,590.551)">
            <path d="M0.237,-0.395C0.264,-0.357 0.296,-0.305 0.334,-0.239L0.364,-0.284C0.321,-0.346 0.279,-0.402 0.237,-0.451L0.237,-0.56L0.343,-0.56L0.343,-0.613L0.237,-0.613L0.237,-0.811L0.185,-0.811L0.185,-0.613L0.057,-0.613L0.057,-0.56L0.184,-0.56C0.158,-0.422 0.112,-0.299 0.047,-0.191L0.07,-0.133C0.118,-0.218 0.156,-0.313 0.185,-0.418L0.185,0.094L0.237,0.094L0.237,-0.395ZM0.843,0.094C0.889,0.094 0.913,0.07 0.913,0.023L0.913,-0.377L0.396,-0.377L0.396,0.096L0.446,0.096L0.446,-0.329L0.578,-0.329C0.564,-0.271 0.526,-0.219 0.464,-0.172L0.497,-0.142C0.568,-0.196 0.61,-0.259 0.623,-0.329L0.696,-0.329L0.696,-0.247C0.696,-0.215 0.713,-0.199 0.748,-0.199L0.863,-0.199L0.863,0.013C0.863,0.036 0.851,0.048 0.827,0.048L0.757,0.046L0.771,0.094L0.843,0.094ZM0.74,-0.329L0.863,-0.329L0.863,-0.239L0.768,-0.239C0.749,-0.239 0.74,-0.249 0.74,-0.267L0.74,-0.329ZM0.535,-0.152L0.535,0.019L0.777,0.019L0.777,-0.152L0.535,-0.152ZM0.735,-0.021L0.577,-0.021L0.577,-0.112L0.735,-0.112L0.735,-0.021ZM0.54,-0.72L0.509,-0.691C0.544,-0.668 0.575,-0.645 0.603,-0.621L0.368,-0.621L0.368,-0.577L0.59,-0.577C0.53,-0.525 0.437,-0.482 0.31,-0.448L0.336,-0.406C0.476,-0.452 0.578,-0.509 0.64,-0.577L0.666,-0.577L0.666,-0.489C0.666,-0.473 0.656,-0.464 0.636,-0.464C0.616,-0.464 0.596,-0.465 0.576,-0.467L0.585,-0.423L0.65,-0.423C0.692,-0.423 0.714,-0.442 0.714,-0.478L0.714,-0.577L0.872,-0.577C0.854,-0.542 0.831,-0.51 0.802,-0.48L0.851,-0.466C0.883,-0.507 0.909,-0.549 0.928,-0.591L0.928,-0.621L0.723,-0.621C0.775,-0.656 0.822,-0.695 0.862,-0.737L0.862,-0.778L0.411,-0.778L0.411,-0.732L0.796,-0.732C0.753,-0.691 0.707,-0.656 0.659,-0.626C0.626,-0.658 0.586,-0.689 0.54,-0.72Z" style="fill:rgb(168,175,185);fill-rule:nonzero;"/>
        </g>
        <g transform="matrix(310.329,0,0,310.329,697.316,590.551)">
            <path d="M0.876,-0.05C0.907,-0.05 0.934,-0.1 0.957,-0.199L0.915,-0.224C0.899,-0.145 0.884,-0.105 0.87,-0.105C0.852,-0.105 0.832,-0.127 0.81,-0.171C0.805,-0.182 0.8,-0.194 0.796,-0.207C0.847,-0.29 0.886,-0.39 0.913,-0.508L0.869,-0.528C0.847,-0.431 0.816,-0.346 0.777,-0.273C0.769,-0.307 0.761,-0.344 0.755,-0.385C0.745,-0.443 0.739,-0.518 0.735,-0.61L0.94,-0.61L0.94,-0.657L0.733,-0.657C0.731,-0.705 0.731,-0.758 0.731,-0.814L0.679,-0.814C0.679,-0.759 0.679,-0.707 0.681,-0.657L0.496,-0.657L0.496,-0.19C0.496,-0.174 0.49,-0.162 0.478,-0.156L0.491,-0.107C0.553,-0.139 0.615,-0.175 0.675,-0.216L0.666,-0.263C0.623,-0.233 0.583,-0.207 0.545,-0.187L0.545,-0.61L0.683,-0.61C0.687,-0.51 0.696,-0.426 0.709,-0.359C0.719,-0.307 0.73,-0.26 0.744,-0.218C0.704,-0.159 0.657,-0.11 0.603,-0.07L0.632,-0.028C0.682,-0.064 0.726,-0.108 0.765,-0.161C0.77,-0.15 0.776,-0.139 0.782,-0.127C0.812,-0.076 0.844,-0.05 0.876,-0.05ZM0.823,-0.81L0.786,-0.788C0.826,-0.746 0.859,-0.708 0.884,-0.674L0.921,-0.7C0.898,-0.732 0.865,-0.768 0.823,-0.81ZM0.085,-0.676L0.085,-0.626L0.245,-0.626L0.245,-0.475L0.058,-0.475L0.058,-0.425L0.257,-0.425L0.257,-0.049C0.221,-0.081 0.188,-0.128 0.159,-0.189C0.165,-0.237 0.169,-0.288 0.171,-0.341L0.122,-0.347C0.118,-0.195 0.091,-0.058 0.043,0.062L0.084,0.1C0.111,0.034 0.132,-0.037 0.147,-0.114C0.189,-0.04 0.239,0.011 0.295,0.039C0.354,0.068 0.503,0.083 0.743,0.083L0.944,0.083L0.954,0.028C0.904,0.03 0.83,0.031 0.731,0.032C0.523,0.032 0.389,0.02 0.33,-0.003C0.323,-0.006 0.316,-0.009 0.309,-0.013L0.309,-0.227L0.424,-0.227L0.424,-0.276L0.309,-0.276L0.309,-0.425L0.451,-0.425L0.451,-0.475L0.298,-0.475L0.298,-0.626L0.444,-0.626L0.444,-0.676L0.298,-0.676L0.298,-0.815L0.245,-0.815L0.245,-0.676L0.085,-0.676Z" style="fill:rgb(168,175,185);fill-rule:nonzero;"/>
        </g>
        <g transform="matrix(310.329,0,0,310.329,1038.68,590.551)">
            <path d="M0.38,-0.244L0.09,-0.244L0.09,0.082L0.141,0.082L0.141,0.03L0.38,0.03L0.38,-0.244ZM0.141,-0.019L0.141,-0.196L0.33,-0.196L0.33,-0.019L0.141,-0.019ZM0.052,-0.674L0.052,-0.624L0.419,-0.624L0.419,-0.674L0.052,-0.674ZM0.096,-0.53L0.096,-0.482L0.372,-0.482L0.372,-0.53L0.096,-0.53ZM0.097,-0.393L0.097,-0.344L0.372,-0.344L0.372,-0.393L0.097,-0.393ZM0.455,-0.38L0.455,-0.328L0.522,-0.328C0.546,-0.24 0.591,-0.16 0.659,-0.089C0.589,-0.031 0.501,0.017 0.394,0.053L0.424,0.098C0.534,0.061 0.625,0.011 0.699,-0.051C0.761,0.005 0.841,0.054 0.938,0.098L0.967,0.052C0.875,0.013 0.798,-0.033 0.736,-0.086C0.802,-0.154 0.85,-0.236 0.879,-0.33L0.879,-0.38L0.455,-0.38ZM0.573,-0.328L0.827,-0.328C0.799,-0.251 0.756,-0.183 0.696,-0.123C0.637,-0.183 0.596,-0.252 0.573,-0.328ZM0.538,-0.77L0.538,-0.659C0.538,-0.581 0.497,-0.52 0.417,-0.477L0.453,-0.437C0.545,-0.491 0.591,-0.567 0.591,-0.665L0.591,-0.719L0.765,-0.719L0.765,-0.54C0.765,-0.487 0.793,-0.46 0.849,-0.46L0.939,-0.46L0.939,-0.51L0.861,-0.51C0.833,-0.51 0.819,-0.523 0.819,-0.549L0.819,-0.77L0.538,-0.77ZM0.219,-0.817L0.168,-0.803C0.193,-0.764 0.214,-0.724 0.231,-0.682L0.278,-0.7C0.264,-0.736 0.244,-0.775 0.219,-0.817Z" style="fill:rgb(168,175,185);fill-rule:nonzero;"/>
        </g>
        <g transform="matrix(310.329,0,0,310.329,1380.04,590.551)">
            <path d="M0.132,0.034L0.325,0.034L0.325,0.082L0.377,0.082L0.377,-0.246L0.08,-0.246L0.08,0.096L0.132,0.096L0.132,0.034ZM0.325,-0.016L0.132,-0.016L0.132,-0.196L0.325,-0.196L0.325,-0.016ZM0.043,-0.674L0.043,-0.623L0.415,-0.623L0.415,-0.674L0.043,-0.674ZM0.082,-0.529L0.082,-0.48L0.375,-0.48L0.375,-0.529L0.082,-0.529ZM0.082,-0.393L0.082,-0.343L0.375,-0.343L0.375,-0.393L0.082,-0.393ZM0.666,-0.813L0.666,-0.478L0.434,-0.478L0.434,-0.426L0.666,-0.426L0.666,0.097L0.719,0.097L0.719,-0.426L0.955,-0.426L0.955,-0.478L0.719,-0.478L0.719,-0.813L0.666,-0.813ZM0.218,-0.817L0.166,-0.803C0.188,-0.764 0.207,-0.724 0.223,-0.682L0.269,-0.699C0.257,-0.735 0.24,-0.775 0.218,-0.817Z" style="fill:rgb(168,175,185);fill-rule:nonzero;"/>
        </g>
    </g>
    <g transform="matrix(0.0360131,0,0,0.0360131,9.14246,-1.02293)">
        <path d="M2568.2,921.804C2570.85,921.804 2573.39,922.857 2575.27,924.733C2577.14,926.608 2578.2,929.152 2578.2,931.804L2578.2,1750C2578.2,2207.09 2207.09,2578.2 1750,2578.2C1292.91,2578.2 921.804,2207.09 921.804,1750C921.804,1292.91 1292.91,921.804 1750,921.804L2568.2,921.804Z" style="fill:rgb(168,175,185);"/>
    </g>
</svg>
