<?xml version="1.0" encoding="UTF-8" standalone="no"?>
<!DOCTYPE svg PUBLIC "-//W3C//DTD SVG 1.1//EN" "http://www.w3.org/Graphics/SVG/1.1/DTD/svg11.dtd">
<svg width="100%" height="100%" viewBox="0 0 2082 845" version="1.1" xmlns="http://www.w3.org/2000/svg" xmlns:xlink="http://www.w3.org/1999/xlink" xml:space="preserve" xmlns:serif="http://www.serif.com/" style="fill-rule:evenodd;clip-rule:evenodd;stroke-linejoin:round;stroke-miterlimit:2;">
    <g transform="matrix(1,0,0,1,-4057.27,-1651.55)">
        <g id="塑造＿logo" transform="matrix(1.76234,0,0,0.714867,4057.27,1651.55)">
            <rect x="0" y="0" width="1181.1" height="1181.1" style="fill:none;"/>
            <g transform="matrix(0.781758,0,0,1.92724,-3761.63,-3719.65)">
                <g transform="matrix(304.661,0,0,304.661,4960.59,2355.26)">
                    <path d="M0.078,-0.646L0.279,-0.646C0.28,-0.586 0.279,-0.518 0.272,-0.458L0.204,-0.458L0.204,-0.587C0.204,-0.594 0.198,-0.598 0.189,-0.6L0.129,-0.612L0.129,-0.37C0.161,-0.364 0.197,-0.374 0.203,-0.408L0.264,-0.408C0.26,-0.388 0.254,-0.371 0.248,-0.356C0.218,-0.287 0.172,-0.249 0.094,-0.205C0.076,-0.195 0.089,-0.183 0.102,-0.186C0.196,-0.21 0.273,-0.261 0.311,-0.336C0.322,-0.358 0.33,-0.382 0.337,-0.408L0.426,-0.408L0.426,-0.375C0.461,-0.367 0.501,-0.376 0.501,-0.42L0.501,-0.583C0.501,-0.587 0.495,-0.594 0.486,-0.596L0.426,-0.608L0.426,-0.458L0.346,-0.458C0.355,-0.516 0.356,-0.576 0.356,-0.623L0.356,-0.646L0.515,-0.646C0.546,-0.646 0.564,-0.657 0.564,-0.679C0.564,-0.692 0.548,-0.704 0.528,-0.723C0.512,-0.705 0.503,-0.696 0.489,-0.696L0.379,-0.696C0.404,-0.721 0.435,-0.756 0.457,-0.783C0.467,-0.795 0.462,-0.801 0.446,-0.81L0.393,-0.841C0.376,-0.787 0.353,-0.732 0.335,-0.696L0.252,-0.696C0.269,-0.706 0.281,-0.733 0.27,-0.756C0.255,-0.786 0.219,-0.807 0.176,-0.826C0.161,-0.833 0.154,-0.825 0.16,-0.813C0.174,-0.784 0.191,-0.745 0.21,-0.712C0.214,-0.704 0.219,-0.699 0.224,-0.696L0.045,-0.696C0.059,-0.657 0.063,-0.646 0.078,-0.646ZM0.891,-0.047C0.872,-0.024 0.862,-0.015 0.841,-0.015L0.545,-0.015L0.545,-0.108L0.751,-0.108C0.785,-0.108 0.805,-0.121 0.805,-0.144C0.805,-0.159 0.789,-0.17 0.765,-0.192C0.747,-0.173 0.739,-0.161 0.72,-0.161L0.545,-0.161L0.545,-0.25C0.545,-0.258 0.538,-0.264 0.528,-0.266L0.482,-0.275C0.566,-0.311 0.623,-0.37 0.645,-0.445L0.803,-0.445L0.803,-0.328C0.803,-0.323 0.803,-0.318 0.799,-0.316C0.791,-0.312 0.745,-0.315 0.717,-0.315C0.705,-0.315 0.702,-0.305 0.714,-0.3C0.735,-0.292 0.781,-0.273 0.803,-0.253C0.841,-0.218 0.879,-0.254 0.879,-0.291L0.879,-0.722C0.879,-0.735 0.905,-0.766 0.866,-0.777L0.803,-0.795C0.79,-0.782 0.782,-0.775 0.765,-0.775L0.662,-0.775C0.662,-0.78 0.657,-0.785 0.646,-0.787L0.584,-0.798C0.586,-0.65 0.586,-0.578 0.581,-0.502C0.576,-0.42 0.539,-0.351 0.442,-0.282C0.43,-0.274 0.439,-0.26 0.451,-0.264L0.46,-0.267L0.46,-0.161L0.175,-0.161C0.194,-0.119 0.198,-0.108 0.213,-0.108L0.46,-0.108L0.46,-0.015L0.054,-0.015C0.071,0.022 0.075,0.04 0.095,0.04L0.878,0.04C0.913,0.04 0.933,0.028 0.933,0.004C0.933,-0.012 0.916,-0.023 0.891,-0.047ZM0.803,-0.726L0.803,-0.635L0.661,-0.635C0.662,-0.661 0.662,-0.691 0.662,-0.726L0.803,-0.726ZM0.655,-0.495C0.658,-0.52 0.659,-0.548 0.661,-0.586L0.803,-0.586L0.803,-0.495L0.655,-0.495Z" style="fill:rgb(171,175,183);fill-rule:nonzero;"/>
                </g>
                <g transform="matrix(304.661,0,0,304.661,5265.25,2355.26)">
                    <path d="M0.343,-0.522C0.369,-0.546 0.396,-0.583 0.422,-0.624L0.558,-0.624L0.558,-0.499L0.281,-0.499C0.301,-0.457 0.305,-0.447 0.323,-0.447L0.876,-0.447C0.913,-0.447 0.929,-0.459 0.929,-0.479C0.929,-0.494 0.911,-0.508 0.891,-0.527C0.872,-0.508 0.862,-0.499 0.844,-0.499L0.637,-0.499L0.637,-0.624L0.799,-0.624C0.83,-0.624 0.851,-0.637 0.851,-0.656C0.851,-0.671 0.834,-0.685 0.814,-0.703C0.798,-0.686 0.786,-0.675 0.769,-0.675L0.637,-0.675L0.637,-0.808C0.637,-0.813 0.633,-0.819 0.621,-0.821L0.558,-0.834L0.558,-0.675L0.453,-0.675C0.462,-0.692 0.469,-0.706 0.479,-0.727C0.488,-0.746 0.486,-0.751 0.466,-0.761L0.412,-0.787C0.403,-0.748 0.393,-0.709 0.379,-0.666C0.363,-0.617 0.344,-0.57 0.328,-0.535C0.323,-0.524 0.332,-0.512 0.343,-0.522ZM0.212,-0.666C0.266,-0.603 0.317,-0.684 0.258,-0.732C0.225,-0.759 0.19,-0.771 0.135,-0.789C0.123,-0.793 0.115,-0.783 0.125,-0.771C0.15,-0.741 0.187,-0.695 0.212,-0.666ZM0.168,-0.48C0.213,-0.426 0.265,-0.489 0.22,-0.54C0.183,-0.582 0.129,-0.598 0.089,-0.614C0.074,-0.62 0.071,-0.604 0.076,-0.598C0.104,-0.564 0.137,-0.517 0.168,-0.48ZM0.94,-0.047C0.891,-0.039 0.791,-0.028 0.679,-0.026C0.53,-0.023 0.384,-0.015 0.266,-0.126L0.266,-0.326C0.266,-0.347 0.292,-0.368 0.246,-0.384L0.191,-0.403C0.179,-0.39 0.171,-0.383 0.155,-0.383L0.047,-0.383C0.064,-0.345 0.068,-0.333 0.084,-0.333L0.186,-0.333L0.186,-0.125C0.149,-0.082 0.094,-0.042 0.039,-0.003C0.102,0.05 0.111,0.05 0.135,0.02C0.164,-0.016 0.199,-0.066 0.227,-0.108C0.334,0.045 0.487,0.047 0.676,0.047C0.736,0.047 0.8,0.043 0.855,0.039C0.881,0.037 0.885,0.032 0.897,0.019C0.92,-0.005 0.932,-0.016 0.95,-0.036C0.954,-0.04 0.952,-0.049 0.94,-0.047ZM0.811,-0.118L0.811,-0.322C0.811,-0.338 0.835,-0.363 0.799,-0.374L0.732,-0.395C0.718,-0.38 0.708,-0.374 0.691,-0.374L0.47,-0.374C0.47,-0.378 0.466,-0.385 0.455,-0.387L0.391,-0.399L0.391,-0.072C0.431,-0.064 0.47,-0.079 0.47,-0.123L0.47,-0.128L0.732,-0.128L0.732,-0.074C0.771,-0.066 0.811,-0.08 0.811,-0.118ZM0.47,-0.179L0.47,-0.324L0.732,-0.324L0.732,-0.179L0.47,-0.179Z" style="fill:rgb(171,175,183);fill-rule:nonzero;"/>
                </g>
                <g transform="matrix(304.661,0,0,304.661,5569.91,2355.26)">
                    <path d="M0.205,-0.711C0.244,-0.64 0.303,-0.703 0.27,-0.758C0.254,-0.785 0.215,-0.815 0.171,-0.84C0.159,-0.847 0.15,-0.838 0.155,-0.827C0.169,-0.796 0.189,-0.74 0.205,-0.711ZM0.377,-0.441C0.365,-0.432 0.374,-0.418 0.387,-0.423C0.437,-0.442 0.494,-0.479 0.525,-0.528C0.547,-0.562 0.565,-0.621 0.565,-0.68L0.565,-0.739L0.697,-0.739L0.697,-0.623C0.697,-0.492 0.699,-0.478 0.814,-0.475C0.855,-0.474 0.898,-0.481 0.921,-0.494C0.939,-0.504 0.94,-0.529 0.925,-0.54C0.91,-0.551 0.904,-0.562 0.893,-0.581C0.889,-0.588 0.882,-0.588 0.878,-0.581L0.869,-0.565C0.86,-0.549 0.854,-0.545 0.802,-0.547C0.776,-0.548 0.775,-0.556 0.775,-0.598L0.775,-0.739C0.775,-0.755 0.803,-0.781 0.765,-0.793L0.697,-0.814C0.682,-0.797 0.67,-0.791 0.654,-0.791L0.565,-0.791C0.564,-0.797 0.559,-0.802 0.546,-0.805L0.487,-0.818C0.487,-0.752 0.487,-0.712 0.486,-0.679C0.485,-0.63 0.48,-0.584 0.463,-0.545C0.447,-0.509 0.413,-0.468 0.377,-0.441ZM0.417,-0.646C0.417,-0.663 0.402,-0.672 0.379,-0.696C0.359,-0.675 0.35,-0.665 0.331,-0.665L0.039,-0.665C0.055,-0.624 0.059,-0.612 0.076,-0.612L0.364,-0.612C0.398,-0.612 0.417,-0.623 0.417,-0.646ZM0.116,-0.479L0.32,-0.479C0.352,-0.479 0.371,-0.489 0.371,-0.513C0.371,-0.526 0.359,-0.537 0.334,-0.561C0.316,-0.539 0.304,-0.531 0.286,-0.531L0.08,-0.531C0.098,-0.489 0.101,-0.479 0.116,-0.479ZM0.122,-0.352L0.319,-0.352C0.351,-0.352 0.371,-0.363 0.371,-0.386C0.371,-0.399 0.359,-0.411 0.334,-0.434C0.314,-0.413 0.305,-0.404 0.288,-0.404L0.084,-0.404C0.103,-0.364 0.106,-0.352 0.122,-0.352ZM0.93,0.006C0.838,-0.023 0.758,-0.069 0.693,-0.124C0.752,-0.192 0.798,-0.283 0.829,-0.358C0.836,-0.375 0.836,-0.383 0.817,-0.398L0.777,-0.43C0.765,-0.418 0.754,-0.415 0.736,-0.415L0.419,-0.415C0.434,-0.381 0.441,-0.363 0.455,-0.363L0.497,-0.363C0.515,-0.275 0.545,-0.192 0.6,-0.121C0.531,-0.05 0.428,0.012 0.351,0.043C0.336,0.049 0.341,0.067 0.359,0.063C0.465,0.039 0.564,-0.008 0.642,-0.075C0.697,-0.021 0.766,0.024 0.832,0.053C0.875,0.072 0.876,0.064 0.932,0.021C0.941,0.014 0.942,0.01 0.93,0.006ZM0.744,-0.363C0.724,-0.299 0.688,-0.233 0.643,-0.172C0.59,-0.229 0.566,-0.291 0.541,-0.363L0.744,-0.363ZM0.37,-0.023L0.37,-0.206C0.37,-0.227 0.395,-0.249 0.357,-0.261L0.292,-0.282C0.278,-0.265 0.268,-0.26 0.248,-0.26L0.173,-0.26C0.172,-0.265 0.166,-0.27 0.156,-0.273L0.095,-0.287L0.095,0.051C0.139,0.056 0.173,0.043 0.173,-0.005L0.173,-0.018L0.292,-0.018L0.292,0.03C0.337,0.034 0.37,0.023 0.37,-0.023ZM0.173,-0.071L0.173,-0.208L0.292,-0.208L0.292,-0.071L0.173,-0.071Z" style="fill:rgb(171,175,183);fill-rule:nonzero;"/>
                </g>
                <g transform="matrix(304.661,0,0,304.661,5874.57,2355.26)">
                    <path d="M0.202,-0.714C0.242,-0.632 0.304,-0.695 0.267,-0.762C0.251,-0.79 0.204,-0.823 0.163,-0.843C0.151,-0.849 0.143,-0.839 0.149,-0.828C0.162,-0.802 0.188,-0.743 0.202,-0.714ZM0.897,-0.541C0.88,-0.523 0.87,-0.513 0.852,-0.513L0.709,-0.513L0.709,-0.815C0.709,-0.82 0.704,-0.824 0.691,-0.827L0.627,-0.841L0.627,-0.513L0.411,-0.513C0.431,-0.471 0.437,-0.457 0.455,-0.457L0.627,-0.457L0.627,0.063C0.667,0.07 0.709,0.059 0.709,0.01L0.709,-0.457L0.881,-0.457C0.916,-0.457 0.937,-0.468 0.937,-0.491C0.937,-0.506 0.917,-0.522 0.897,-0.541ZM0.373,-0.606C0.406,-0.606 0.427,-0.614 0.427,-0.641C0.427,-0.654 0.412,-0.667 0.388,-0.69C0.367,-0.667 0.361,-0.659 0.341,-0.659L0.036,-0.659C0.053,-0.617 0.053,-0.606 0.073,-0.606L0.373,-0.606ZM0.352,-0.558C0.333,-0.537 0.325,-0.529 0.307,-0.529L0.072,-0.529C0.089,-0.489 0.093,-0.478 0.109,-0.478L0.337,-0.478C0.369,-0.478 0.39,-0.489 0.39,-0.512C0.39,-0.524 0.376,-0.535 0.352,-0.558ZM0.351,-0.435C0.334,-0.415 0.325,-0.406 0.307,-0.406L0.075,-0.406C0.092,-0.366 0.094,-0.355 0.11,-0.355L0.337,-0.355C0.369,-0.355 0.389,-0.364 0.389,-0.387C0.389,-0.401 0.376,-0.413 0.351,-0.435ZM0.362,-0.272L0.3,-0.292C0.285,-0.275 0.276,-0.268 0.257,-0.268L0.17,-0.268C0.169,-0.274 0.163,-0.279 0.152,-0.281L0.091,-0.293L0.091,0.045C0.118,0.051 0.17,0.046 0.17,-0.008L0.17,-0.028L0.3,-0.028L0.3,0.035C0.344,0.04 0.379,0.027 0.379,-0.019L0.379,-0.212C0.379,-0.233 0.403,-0.259 0.362,-0.272ZM0.17,-0.08L0.17,-0.217L0.3,-0.217L0.3,-0.08L0.17,-0.08Z" style="fill:rgb(171,175,183);fill-rule:nonzero;"/>
                </g>
            </g>
        </g>
    </g>
</svg>
