<?xml version="1.0" encoding="UTF-8" standalone="no"?>
<!DOCTYPE svg PUBLIC "-//W3C//DTD SVG 1.1//EN" "http://www.w3.org/Graphics/SVG/1.1/DTD/svg11.dtd">
<svg width="100%" height="100%" viewBox="0 0 1182 1182" version="1.1" xmlns="http://www.w3.org/2000/svg" xmlns:xlink="http://www.w3.org/1999/xlink" xml:space="preserve" xmlns:serif="http://www.serif.com/" style="fill-rule:evenodd;clip-rule:evenodd;stroke-linejoin:round;stroke-miterlimit:2;">
    <rect x="0" y="0" width="1181.1" height="1181.1" style="fill:rgb(235,235,235);"/>
    <g transform="matrix(1,0,0,1,-21.315,-23.6096)">
        <g transform="matrix(328.232,0,0,328.232,156.598,729.841)">
            <path d="M0.038,-0.704C0.035,-0.684 0.034,-0.674 0.049,-0.672C0.089,-0.667 0.119,-0.654 0.119,-0.614L0.119,-0.167C0.119,-0.05 0.117,-0.043 0.061,-0.032C0.047,-0.029 0.046,-0.021 0.042,-0L0.231,-0C0.244,-0 0.245,-0.008 0.253,-0.032C0.17,-0.041 0.172,-0.05 0.172,-0.199L0.172,-0.578L0.615,0.003C0.62,0.01 0.648,0.014 0.648,-0.002L0.648,-0.543C0.648,-0.653 0.651,-0.663 0.707,-0.672C0.72,-0.674 0.72,-0.676 0.727,-0.704L0.518,-0.704C0.513,-0.68 0.514,-0.673 0.534,-0.672C0.591,-0.669 0.595,-0.655 0.595,-0.521L0.595,-0.189L0.196,-0.704L0.038,-0.704Z" style="fill-rule:nonzero;"/>
        </g>
        <g transform="matrix(328.232,0,0,328.232,405.069,729.841)">
            <path d="M0.042,-0L0.261,-0C0.275,-0 0.28,-0.006 0.288,-0.032C0.206,-0.037 0.206,-0.038 0.206,-0.204L0.206,-0.647C0.375,-0.68 0.447,-0.614 0.453,-0.508C0.459,-0.397 0.38,-0.35 0.237,-0.35C0.228,-0.35 0.227,-0.34 0.234,-0.335C0.34,-0.259 0.377,-0.133 0.457,-0.043C0.505,0.011 0.562,-0 0.627,-0C0.644,-0 0.643,-0.009 0.629,-0.016C0.503,-0.079 0.482,-0.214 0.349,-0.32C0.475,-0.332 0.556,-0.417 0.556,-0.513C0.556,-0.601 0.468,-0.706 0.297,-0.704C0.208,-0.703 0.121,-0.692 0.052,-0.704C0.051,-0.677 0.056,-0.671 0.078,-0.664C0.109,-0.654 0.11,-0.653 0.11,-0.523L0.11,-0.181C0.11,-0.043 0.108,-0.042 0.063,-0.032C0.049,-0.029 0.046,-0.024 0.042,-0Z" style="fill-rule:nonzero;"/>
        </g>
        <g transform="matrix(328.232,0,0,328.232,611.199,729.841)">
            <path d="M0.658,-0.145C0.665,-0.16 0.651,-0.168 0.64,-0.156C0.598,-0.109 0.531,-0.065 0.417,-0.065C0.253,-0.065 0.155,-0.184 0.155,-0.357C0.155,-0.53 0.252,-0.671 0.397,-0.671C0.526,-0.671 0.592,-0.621 0.623,-0.532C0.627,-0.52 0.644,-0.522 0.643,-0.538L0.636,-0.674C0.635,-0.684 0.633,-0.684 0.625,-0.684C0.573,-0.681 0.527,-0.714 0.391,-0.714C0.2,-0.714 0.05,-0.552 0.05,-0.345C0.05,-0.133 0.183,0.009 0.399,0.009C0.547,0.009 0.625,-0.072 0.658,-0.145Z" style="fill-rule:nonzero;"/>
        </g>
        <g transform="matrix(328.232,0,0,328.232,838.664,729.841)">
            <path d="M0.658,-0.145C0.665,-0.16 0.651,-0.168 0.64,-0.156C0.598,-0.109 0.531,-0.065 0.417,-0.065C0.253,-0.065 0.155,-0.184 0.155,-0.357C0.155,-0.53 0.252,-0.671 0.397,-0.671C0.526,-0.671 0.592,-0.621 0.623,-0.532C0.627,-0.52 0.644,-0.522 0.643,-0.538L0.636,-0.674C0.635,-0.684 0.633,-0.684 0.625,-0.684C0.573,-0.681 0.527,-0.714 0.391,-0.714C0.2,-0.714 0.05,-0.552 0.05,-0.345C0.05,-0.133 0.183,0.009 0.399,0.009C0.547,0.009 0.625,-0.072 0.658,-0.145Z" style="fill-rule:nonzero;"/>
        </g>
    </g>
</svg>
